{"title":"Lucia.De.B.2014.AVI.BRRip.1080p.DivX.NLaudio.{Th3Sp3cialist}","uid":10937537,"size":3120198573,"categoryP":"video","categoryS":"hd___movies","magnet":"?xt=urn:btih:78203c0cfd9bffc9c8397f1bf2e103a6d8545c69&amp;dn=Lucia.De.B.2014.AVI.BRRip.1080p.DivX.NLaudio.%7BTh3Sp3cialist%7D&amp;tr=udp%3A%2F%2Ftracker.openbittorrent.com%3A80&amp;tr=udp%3A%2F%2Fopen.demonii.com%3A1337&amp;tr=udp%3A%2F%2Ftracker.coppersurfer.tk%3A6969&amp;tr=udp%3A%2F%2Fexodus.desync.com%3A6969","seeders":2,"leechers":0,"uploader":"HOLLANDmovies","files":-1,"time":1409447527,"description":"INFO\n\nLucia de B. (2014)\n97 min - Drama | Thriller\n\nA psychological thriller, based on one of the most controversial court cases in the Netherlands. Lucia, a nurse, is sentenced to life imprisonment for allegedly having killed at least seven babies and elderly people.\n\nDirector: Paula van der Oest\nWriters: Moniek Kramer, Tijs van Marle\nStars: Barry Atsma, Amanda Ooms, Marwan Kenzari \n\nGENERAL:\n\n\nComplete name : Lucia.De.B.2014.AVI.BRRip.1080p.DivX.NLaudio.{Th3Sp3cialist}.avi\nFormat : AVI\nFormat/Info : Audio Video Interleave\nFormat profile : OpenDML\nFile size : 2.91 GiB\nDuration : 1h 36mn\nOverall bit rate : 4 297 Kbps\n\nVideo\nID : 0\nOriginal Source : Lucia de B.(2014) 1080p WEB-DL NL Audio SAM TBS\nFormat : xvid\nCodec ID : xvid\nDuration : 1h 36mn\nBit rate : 3 966 Kbps\nWidth : 1 920 pixels\nHeight : 1 080 pixels\nDisplay aspect ratio : 16:9\nFrame rate : 24.000 fps\nBits/(Pixel*Frame) : 0.080\nStream size : 2.68 GiB (92%)\n\nAudio\nID : 1\nFormat : MPEG Audio\nFormat version : Version 1\nFormat profile : Layer 3\nMode : Joint stereo\nMode extension : MS Stereo\nCodec ID : 55\nCodec ID/Hint : MP3\nDuration : 1h 36mn\nBit rate mode : Constant\nBit rate : 320 Kbps\nChannel(s) : 2 channels\nSampling rate : 48.0 KHz\nCompression mode : Lossy\nStream size : 222 MiB (7%)\nAlignment : Aligned on interleaves\nInterleave, duration : 24 ms (0.58 video frame)\n &lt;a href=&quot;\nhttp://bayimg.com/KAanhaAgb&quot; rel=&quot;nofollow&quot; target=&quot;_NEW&quot;&gt;\nhttp://bayimg.com/KAanhaAgb&lt;/a&gt; &lt;a href=&quot;\nhttp://bayimg.com/KaAnIAAGb&quot; rel=&quot;nofollow&quot; target=&quot;_NEW&quot;&gt;\nhttp://bayimg.com/KaAnIAAGb&lt;/a&gt; &lt;a href=&quot;\nhttp://bayimg.com/KAaNJaaGb&quot; rel=&quot;nofollow&quot; target=&quot;_NEW&quot;&gt;\nhttp://bayimg.com/KAaNJaaGb&lt;/a&gt;","torrent":{"xt":"urn:btih:78203c0cfd9bffc9c8397f1bf2e103a6d8545c69","amp;dn":"Lucia.De.B.2014.AVI.BRRip.1080p.DivX.NLaudio.%7BTh3Sp3cialist%7D","amp;tr":["udp%3A%2F%2Ftracker.openbittorrent.com%3A80","udp%3A%2F%2Fopen.demonii.com%3A1337","udp%3A%2F%2Ftracker.coppersurfer.tk%3A6969","udp%3A%2F%2Fexodus.desync.com%3A6969"],"infoHash":"78203c0cfd9bffc9c8397f1bf2e103a6d8545c69","infoHashBuffer":{"type":"Buffer","data":[120,32,60,12,253,155,255,201,200,57,127,27,242,225,3,166,216,84,92,105]},"announce":[],"urlList":[]}}